# xmcd
#
# Track frame offsets:
#	150
#	21408
#	34454
#	47043
#	64975
#	87392
#	99439
#	116282
#	130776
#	142020
#	175634
#	182984
#	195577
#	211085
#	228057
#	241362
#
# Disc length: 3630 seconds
#
# Revision: 1
# Processed by: cddbd v1.5.2PL0 Copyright (c) Steve Scherf et al.
# Submitted via: audiograbber 1.83.01
#
DISCID=dc0e2c10
DTITLE=Netter Bukowski Abend - Netter Bukowski Abend
DYEAR=1900
DGENRE=
TTITLE0=Hexenstich
TTITLE1=Ungeheuer
TTITLE2=Blue Movie
TTITLE3=Heiß
TTITLE4=Betäubungsmittel
TTITLE5=Ich kann´s nicht lassen
TTITLE6=Flucht nach vorn
TTITLE7=Verhinderter Ruhestand
TTITLE8=Evolution
TTITLE9=Yeah Man
TTITLE10=Mein Freund William
TTITLE11=5 Männer in Schwarz
TTITLE12=Die Brücken von Arles
TTITLE13=Invasion
TTITLE14=Einer kam durch
TTITLE15=Rock
EXTD=
EXTT0=
EXTT1=
EXTT2=
EXTT3=
EXTT4=
EXTT5=
EXTT6=
EXTT7=
EXTT8=
EXTT9=
EXTT10=
EXTT11=
EXTT12=
EXTT13=
EXTT14=
EXTT15=
PLAYORDER=
